<?xml version="1.0" encoding="UTF-8"?><svg id="a" xmlns="http://www.w3.org/2000/svg" viewBox="0 0 16.63 8.36"><path d="M10.97,3.92V.73h4.69v1.39h-2.47v.77h1.89v1.41h-1.91v3.26h-1.07l-1.13-3.64ZM10.81.58v3.36s1.17,3.79,1.17,3.79h1.34v-3.26h1.91v-1.72h-1.9v-.46h2.47V.58h-5Z" fill="#fff"/><path d="M4.07,7.79c-2.49,0-2.65-.83-2.66-.86h0V.57h2.35v4.69s0,.14.05.19c.02.03.06.04.1.04.06,0,.1-.02.13-.05.05-.05.05-.14.05-.17V.57s2.32,0,2.32,0v3.23h0s-1.27,3.76-1.27,3.76h.06v.16c-.31.06-.7.08-1.14.08M1.57,6.91c.02.06.26.73,2.5.73.33,0,.63-.02.9-.05l1.29-3.82V.73h-2.01v4.54s.01.17-.09.29c-.06.07-.14.1-.25.1h0c-.09,0-.17-.03-.22-.09-.1-.11-.09-.28-.09-.3V.73H1.57v6.18Z" fill="#fff"/><path d="M12.12,7.72h-7.19S7.34.58,7.34.58h2.56l2.22,7.14ZM5.15,7.56h6.76S9.78.73,9.78.73h-2.33l-2.3,6.83Z" fill="#fff"/><path d="M10.59,7.24h1.04l-.06-.2h-.94c.02-.1.03-.21.05-.33h.79l-.06-.2h-.7c.01-.11.02-.22.03-.33h.56l-.06-.2h-.49c.02-.4,0-.77-.14-.98-.44-.7-1.42-.93-1.91-1.1l-.06.2-.18-.07.06-.2c.08-.23.03-.41.53-.36.04-.04.16-.28.14-.33-.14-.07-.48-.15-.48-.15,0,0-.07-.1-.16-.14-.2-.08-.41-.1-.63,0-.02-.01-.11-.05-.19-.01-.12.06-.1.16-.1.16-.02.02-.03.03-.05.05-.14.15-.24.32-.33.52-.02.04-.19.39-.26.66-.14.53-.14.95,0,1.39.04.13.06.25.07.37h-1.21l-.07.2h1.31c.02.11.06.22.13.33h-1.55l-.07.2h1.77c.07.08.15.17.21.24.16-.08.26-.21.32-.39l-.11-.79-.12-.08.15-.16.14.11.12.92c-.06.2-.14.34-.26.45h-2.33l-.07.2h1.97l-1.06.4h4.73l-.52-.21s.01-.06.03-.17M9.29,7.04l.16-.3-.07-.33-.39-.16c-.05.23-.12.45-.22.71l-.21.02c.23-.54.33-1.08.3-1.61l.18.03c.02.24,0,.45-.02.67l.52.22.18.91-.43-.14Z" fill="#fff" fill-rule="evenodd"/></svg>